<svg width="46" height="46" viewBox="0 0 46 46" fill="none" xmlns="http://www.w3.org/2000/svg">
<circle cx="23" cy="23" r="14" fill="white"/>
<path fill-rule="evenodd" clip-rule="evenodd" d="M28.7612 17.2816L15.2816 21.7442L17.8317 29.4469L31.3113 24.9842L28.7612 17.2816ZM14.9628 20.7814C14.7075 20.8659 14.4962 21.0484 14.3754 21.2888C14.2546 21.5291 14.2342 21.8076 14.3188 22.063L16.8688 29.7656C16.9534 30.021 17.1359 30.2323 17.3762 30.3531C17.6166 30.4739 17.8951 30.4942 18.1504 30.4097L31.6301 25.9471C31.8854 25.8625 32.0967 25.68 32.2175 25.4397C32.3383 25.1993 32.3587 24.9208 32.2741 24.6655L29.7241 16.9628C29.6395 16.7075 29.457 16.4961 29.2167 16.3754C28.9763 16.2546 28.6978 16.2342 28.4425 16.3188L14.9628 20.7814Z" fill="#6DA544"/>
<path d="M26.8355 17.9191C27.0046 18.4298 27.3696 18.8525 27.8503 19.0941C28.331 19.3356 28.8879 19.3764 29.3987 19.2073L28.7611 17.2816L26.8355 17.9191ZM17.2072 21.1067C17.3762 21.6174 17.3355 22.1744 17.0939 22.6551C16.8524 23.1358 16.4297 23.5008 15.919 23.6699L15.2815 21.7442L17.2072 21.1067ZM29.3855 25.6218C29.2165 25.1111 29.2572 24.5541 29.4988 24.0734C29.7403 23.5927 30.163 23.2277 30.6737 23.0586L31.3112 24.9843L29.3855 25.6218ZM19.7572 28.8094C19.5881 28.2987 19.2231 27.876 18.7424 27.6344C18.2617 27.3929 17.7048 27.3521 17.194 27.5212L17.8316 29.4469L19.7572 28.8094ZM25.222 22.7267C25.3911 23.2375 25.3504 23.7944 25.1088 24.2751C24.8672 24.7558 24.4446 25.1208 23.9339 25.2899C23.4231 25.459 22.8662 25.4183 22.3855 25.1767C21.9048 24.9351 21.5398 24.5125 21.3707 24.0018C21.2016 23.491 21.2423 22.9341 21.4839 22.4534C21.7255 21.9727 22.1481 21.6077 22.6588 21.4386C23.1696 21.2695 23.7265 21.3102 24.2072 21.5518C24.6879 21.7934 25.0529 22.216 25.222 22.7267Z" fill="#6DA544"/>
</svg>
