<svg width="40" height="40" viewBox="0 0 40 40" fill="none" xmlns="http://www.w3.org/2000/svg">
<circle cx="20" cy="20" r="20" fill="white"/>
<path d="M20 30C18.6458 30 17.3503 29.7363 16.1133 29.209C14.8763 28.6816 13.8118 27.972 12.9199 27.0801C12.028 26.1882 11.3184 25.1237 10.791 23.8867C10.2637 22.6497 10 21.3542 10 20C10 18.6458 10.2637 17.3503 10.791 16.1133C11.3184 14.8763 12.028 13.8118 12.9199 12.9199C13.8118 12.028 14.8763 11.3184 16.1133 10.791C17.3503 10.2637 18.6458 10 20 10C21.3542 10 22.6497 10.2637 23.8867 10.791C25.1237 11.3184 26.1882 12.028 27.0801 12.9199C27.972 13.8118 28.6816 14.8763 29.209 16.1133C29.7363 17.3503 30 18.6458 30 20C30 21.3542 29.7363 22.6497 29.209 23.8867C28.6816 25.1237 27.972 26.1882 27.0801 27.0801C26.1882 27.972 25.1237 28.6816 23.8867 29.209C22.6497 29.7363 21.3542 30 20 30ZM15.7227 15.7227L14.7852 14.9023C14.6419 14.9023 14.4727 14.9186 14.2773 14.9512C14.082 14.9837 13.9062 15 13.75 15C13.737 14.987 13.6198 14.7461 13.3984 14.2773C11.9661 15.931 11.25 17.8385 11.25 20C11.25 20.0391 11.2533 20.0911 11.2598 20.1562C11.2663 20.2214 11.2695 20.2669 11.2695 20.293C11.3477 20.3711 11.5397 20.5176 11.8457 20.7324C12.1517 20.9473 12.3698 21.1198 12.5 21.25H13.75C13.7891 21.224 13.8249 21.2044 13.8574 21.1914C13.89 21.1784 13.9258 21.1654 13.9648 21.1523C13.8346 21.0091 13.6426 20.7975 13.3887 20.5176C13.1348 20.2376 12.9427 20.0326 12.8125 19.9023C12.8646 19.6029 12.9362 19.1504 13.0273 18.5449C13.1185 17.9395 13.1836 17.487 13.2227 17.1875C14.3424 16.7188 15.1758 16.3737 15.7227 16.1523V15.7227ZM19.6484 12.5391C19.4661 12.4609 19.2969 12.3893 19.1406 12.3242C19.1016 12.2201 19.0755 12.1419 19.0625 12.0898C18.9844 12.3372 18.8607 12.7083 18.6914 13.2031C18.7435 13.2161 18.8184 13.2292 18.916 13.2422C19.0137 13.2552 19.0885 13.2682 19.1406 13.2812H19.6484V12.5391ZM19.5703 21.7383C19.5052 21.8034 19.4596 21.8555 19.4336 21.8945C19.2773 22.168 19.056 22.5846 18.7695 23.1445C18.4831 23.7044 18.2682 24.1211 18.125 24.3945C18.3073 24.668 18.584 25.0846 18.9551 25.6445C19.3262 26.2044 19.6029 26.6211 19.7852 26.8945C21.4779 26.9987 22.7604 27.0768 23.6328 27.1289C23.6589 27.4544 23.763 27.6758 23.9453 27.793C25.1302 27.194 26.1328 26.3639 26.9531 25.3027C27.7734 24.2415 28.3138 23.0534 28.5742 21.7383C28.3268 21.6862 28.0566 21.6146 27.7637 21.5234C27.4707 21.4323 27.2591 21.3704 27.1289 21.3379C26.9987 21.3053 26.7415 21.2728 26.3574 21.2402C25.9733 21.2077 25.5729 21.2305 25.1562 21.3086C25 21.3216 24.8991 21.2207 24.8535 21.0059C24.8079 20.791 24.7852 20.5697 24.7852 20.3418C24.7852 20.1139 24.7591 19.9935 24.707 19.9805C24.4206 19.9284 23.8411 19.9772 22.9688 20.127C22.0964 20.2767 21.5169 20.3255 21.2305 20.2734C21.0612 20.4297 20.5078 20.918 19.5703 21.7383ZM20.7227 11.9531C20.6836 12.2135 20.6152 12.6042 20.5176 13.125C20.4199 13.6458 20.3451 14.043 20.293 14.3164C20.3581 14.3034 20.4655 14.2871 20.6152 14.2676C20.765 14.248 20.8724 14.2383 20.9375 14.2383C20.8984 14.2122 20.8529 14.1862 20.8008 14.1602C20.9961 14.0951 21.1393 14.043 21.2305 14.0039C21.0091 13.0924 20.8398 12.4089 20.7227 11.9531ZM22.9883 11.7773C22.9622 11.9206 22.9492 12.1224 22.9492 12.3828C22.9492 12.6432 22.8841 12.9883 22.7539 13.418C22.7669 13.444 22.793 13.4701 22.832 13.4961C23.0924 13.4701 23.5286 13.4245 24.1406 13.3594C24.1406 13.0859 24.2773 12.8125 24.5508 12.5391C24.056 12.2396 23.5352 11.9857 22.9883 11.7773ZM25.4297 13.1445C25.4036 13.1966 25.3581 13.2682 25.293 13.3594C25.5404 13.3984 25.7031 13.431 25.7812 13.457C25.625 13.3138 25.5078 13.2096 25.4297 13.1445ZM25.957 13.6133C25.918 13.6914 25.8561 13.8086 25.7715 13.9648C25.6868 14.1211 25.625 14.2383 25.5859 14.3164C25.2083 14.3294 24.7005 14.349 24.0625 14.375L23.9844 13.7109C23.9583 13.724 23.9128 13.7402 23.8477 13.7598C23.7826 13.7793 23.7305 13.7891 23.6914 13.7891V14.7461C23.418 14.7721 22.998 14.8112 22.4316 14.8633C21.8652 14.9154 21.4453 14.9544 21.1719 14.9805C21.0807 15.1107 20.9831 15.2539 20.8789 15.4102C21.2305 16.1654 21.4974 16.7318 21.6797 17.1094C21.4193 17.1745 20.8854 17.3177 20.0781 17.5391V18.2031C20.0781 18.2292 20.0879 18.2682 20.1074 18.3203C20.127 18.3724 20.1432 18.4115 20.1562 18.4375C20.3776 18.5417 20.7227 18.6979 21.1914 18.9062C21.6602 19.1146 22.0117 19.2773 22.2461 19.3945L22.6758 18.8672C22.6628 18.737 22.6302 18.5319 22.5781 18.252C22.526 17.972 22.487 17.7604 22.4609 17.6172C22.5 17.5911 22.5618 17.5553 22.6465 17.5098C22.7311 17.4642 22.793 17.4284 22.832 17.4023C23.1836 17.2982 23.4505 17.2266 23.6328 17.1875C23.8021 17.4609 24.0397 17.8516 24.3457 18.3594C24.6517 18.8672 24.8438 19.1862 24.9219 19.3164C25.0391 19.2122 25.2018 19.0527 25.4102 18.8379C25.6185 18.623 25.7747 18.4635 25.8789 18.3594C25.1758 17.8646 24.7135 17.5456 24.4922 17.4023C24.5052 17.2982 24.5312 17.1484 24.5703 16.9531H25.293C26.0221 17.5781 26.7708 18.2161 27.5391 18.8672C27.5521 18.8672 27.5651 18.8574 27.5781 18.8379C27.5911 18.8184 27.6042 18.8086 27.6172 18.8086C27.5651 18.7044 27.3958 18.3854 27.1094 17.8516C27.1094 17.8385 27.1289 17.8125 27.168 17.7734L27.2461 17.6953H28.0469C28.0599 17.6823 28.1706 17.6237 28.3789 17.5195C27.9362 16.0091 27.1289 14.707 25.957 13.6133Z" fill="#6634B1"/>
</svg>
