<svg width="40" height="40" viewBox="0 0 40 40" fill="none" xmlns="http://www.w3.org/2000/svg">
<circle cx="20" cy="20" r="20" fill="white"/>
<path d="M24.8326 18.6651C21.4318 18.6651 18.6652 21.4318 18.6652 24.8325C18.6652 28.2333 21.4319 31 24.8326 31C28.2333 31 31.0001 28.2333 31.0001 24.8325C31.0001 21.4318 28.2334 18.6651 24.8326 18.6651ZM25.6956 27.8933H25.4772V28.2843C25.4772 28.6403 25.1886 28.9289 24.8326 28.9289C24.4767 28.9289 24.1881 28.6403 24.1881 28.2843V27.8933H23.4519C23.096 27.8933 22.8074 27.6047 22.8074 27.2488C22.8074 26.8928 23.096 26.6043 23.4519 26.6043H25.6956C26.0063 26.6043 26.2592 26.3514 26.2592 26.0406C26.2592 25.7299 26.0064 25.4771 25.6956 25.4771H23.969C22.9449 25.4771 22.117 24.6475 22.117 23.6251C22.117 22.5904 22.9557 21.7717 23.969 21.7717H24.1881V21.3807C24.1881 21.0247 24.4767 20.7362 24.8326 20.7362C25.1886 20.7362 25.4772 21.0247 25.4772 21.3807V21.7717H26.2134C26.5693 21.7717 26.8579 22.0603 26.8579 22.4162C26.8579 22.7722 26.5693 23.0608 26.2134 23.0608H23.969C23.656 23.0608 23.406 23.3152 23.406 23.6237C23.406 23.9387 23.6606 24.188 23.969 24.188H25.6956C26.7171 24.188 27.5483 25.0191 27.5483 26.0406C27.5483 27.0622 26.7171 27.8933 25.6956 27.8933Z" fill="#EE34B1"/>
<path d="M15.1674 21.3349C18.5682 21.3349 21.3349 18.5682 21.3349 15.1674C21.3349 11.7667 18.5682 9 15.1674 9C11.7667 9 9 11.7667 9 15.1674C9 18.5682 11.7667 21.3349 15.1674 21.3349ZM12.0608 14.5229H12.859C13.1612 12.9521 14.5453 11.7614 16.203 11.7614C16.5589 11.7614 16.8475 12.05 16.8475 12.406C16.8475 12.7619 16.5589 13.0505 16.203 13.0505C15.2604 13.0505 14.46 13.6698 14.1867 14.5229H15.5126C15.8686 14.5229 16.1572 14.8115 16.1572 15.1674C16.1572 15.5234 15.8686 15.812 15.5126 15.812H14.1867C14.46 16.665 15.2604 17.2844 16.203 17.2844C16.5589 17.2844 16.8475 17.573 16.8475 17.9289C16.8475 18.2849 16.5589 18.5734 16.203 18.5734C14.5453 18.5734 13.1612 17.3828 12.859 15.812H12.0608C11.7048 15.812 11.4163 15.5234 11.4163 15.1674C11.4163 14.8115 11.7048 14.5229 12.0608 14.5229Z" fill="#EE34B1"/>
<path d="M22.7616 10.9794H24.1423C26.4516 10.9794 28.3303 12.8582 28.3303 15.1675V15.6825L28.0499 15.4021C27.7982 15.1504 27.3901 15.1504 27.1384 15.4021C26.8867 15.6537 26.8867 16.0619 27.1384 16.3136L28.5192 17.6943C28.64 17.8152 28.8039 17.8831 28.9749 17.8831C29.1458 17.8831 29.3097 17.8152 29.4306 17.6943L30.8114 16.3136C31.063 16.0619 31.063 15.6538 30.8114 15.4021C30.5597 15.1504 30.1516 15.1504 29.8999 15.4021L29.6194 15.6825V15.1675C29.6194 12.1474 27.1624 9.69037 24.1423 9.69037H22.7616C22.4056 9.69037 22.1171 9.97895 22.1171 10.3349C22.1171 10.6909 22.4056 10.9794 22.7616 10.9794Z" fill="#EE34B1"/>
<path d="M17.2385 29.0206H15.8578C13.5485 29.0206 11.6698 27.1418 11.6698 24.8326V24.3175L11.9502 24.5979C12.2019 24.8497 12.61 24.8497 12.8617 24.5979C13.1134 24.3463 13.1134 23.9382 12.8617 23.6864L11.481 22.3057C11.3601 22.1848 11.1962 22.1169 11.0253 22.1169C10.8543 22.1169 10.6904 22.1848 10.5696 22.3057L9.18875 23.6864C8.93708 23.9381 8.93708 24.3462 9.18875 24.5979C9.44042 24.8496 9.84854 24.8496 10.1002 24.5979L10.3807 24.3175V24.8326C10.3807 27.8526 12.8377 30.3096 15.8578 30.3096H17.2385C17.5945 30.3096 17.883 30.0211 17.883 29.6651C17.883 29.3092 17.5945 29.0206 17.2385 29.0206Z" fill="#EE34B1"/>
</svg>
