<svg width="23" height="22" viewBox="0 0 23 22" fill="none" xmlns="http://www.w3.org/2000/svg">
<path d="M21.2031 0.84375H1.79688C1.33018 0.84375 0.953125 1.20684 0.953125 1.65625V20.3438C0.953125 20.7932 1.33018 21.1562 1.79688 21.1562H21.2031C21.6698 21.1562 22.0469 20.7932 22.0469 20.3438V1.65625C22.0469 1.20684 21.6698 0.84375 21.2031 0.84375ZM18.7668 6.77246H17.0819C15.7609 6.77246 15.5052 7.37676 15.5052 8.26543V10.223H18.6587L18.2474 13.2877H15.5052V21.1562H12.2172V13.2902H9.46709V10.223H12.2172V7.96328C12.2172 5.34043 13.881 3.91094 16.312 3.91094C17.4774 3.91094 18.4768 3.99473 18.7694 4.03281V6.77246H18.7668Z" fill="black"/>
</svg>
