<svg width="33" height="33" viewBox="0 0 33 33" fill="none" xmlns="http://www.w3.org/2000/svg">
<circle cx="16.5" cy="16.5" r="16.5" fill="white"/>
<path d="M24.7777 22.3046L22.5219 24.5423C22.1889 24.8838 21.7475 24.9995 21.3176 25C19.4167 24.9431 17.6199 24.0093 16.1446 23.0505C13.7229 21.2887 11.501 19.1043 10.1065 16.4644C9.5716 15.3575 8.94403 13.945 9.00399 12.7095C9.00934 12.2447 9.13459 11.7885 9.46194 11.4889L11.7177 9.2342C12.1862 8.83576 12.6392 8.97352 12.9389 9.43762L14.7537 12.879C14.9448 13.2867 14.8352 13.7235 14.5502 14.0148L13.7191 14.8455C13.6678 14.9158 13.6351 14.9958 13.6343 15.0828C13.953 16.3165 14.9185 17.4535 15.7714 18.236C16.6243 19.0185 17.5411 20.0786 18.7311 20.3296C18.8782 20.3706 19.0583 20.385 19.1636 20.2872L20.1304 19.304C20.4637 19.0514 20.9449 18.9279 21.3007 19.1345H21.3176L24.5911 21.067C25.0716 21.3683 25.1217 21.9504 24.7777 22.3046Z" fill="#FF7A00"/>
</svg>
