<svg width="21" height="22" viewBox="0 0 21 22" xmlns="http://www.w3.org/2000/svg">
<path d="M18.5516 0.200195H2.22619C0.997148 0.200195 0 1.2368 0 2.51448V19.4859C0 20.7636 0.997148 21.8002 2.22619 21.8002H18.5516C19.7806 21.8002 20.7778 20.7636 20.7778 19.4859V2.51448C20.7778 1.2368 19.7806 0.200195 18.5516 0.200195ZM16.2837 7.85662C16.2929 7.99162 16.2929 8.13144 16.2929 8.26645C16.2929 12.4466 13.2319 17.2632 7.63862 17.2632C5.91332 17.2632 4.31324 16.7425 2.96825 15.8457C3.21406 15.8747 3.4506 15.8843 3.70104 15.8843C5.12488 15.8843 6.43276 15.3829 7.47629 14.5343C6.14057 14.5054 5.0182 13.5941 4.63326 12.3406C5.10169 12.4129 5.52374 12.4129 6.00608 12.2827C4.61471 11.9886 3.57118 10.7157 3.57118 9.17769V9.13912C3.97468 9.37537 4.44774 9.52002 4.944 9.5393C4.52679 9.2508 4.18477 8.85942 3.94846 8.40007C3.71215 7.94073 3.58891 7.42771 3.58973 6.9068C3.58973 6.31859 3.73814 5.77859 4.0025 5.31091C5.50055 7.22984 7.74993 8.48341 10.2729 8.61841C9.84162 6.47287 11.386 4.73234 13.2412 4.73234C14.1178 4.73234 14.9062 5.11323 15.4627 5.73037C16.1492 5.59537 16.8077 5.33019 17.3921 4.96859C17.1649 5.70144 16.6872 6.31859 16.0564 6.70912C16.6686 6.64162 17.2623 6.46323 17.8095 6.21734C17.3967 6.84895 16.8773 7.40823 16.2837 7.85662Z" fill="black"/>
</svg>
