<svg width="17" height="17" viewBox="0 0 17 17" fill="none" xmlns="http://www.w3.org/2000/svg">
<g clip-path="url(#clip0)">
<path d="M5.3125 4.60417C5.3125 6.36155 6.74263 7.79167 8.5 7.79167C10.2574 7.79167 11.6875 6.36155 11.6875 4.60417C11.6875 2.8468 10.2574 1.41667 8.5 1.41667C6.74263 1.41667 5.3125 2.8468 5.3125 4.60417ZM14.1667 14.875H14.875V14.1667C14.875 11.4332 12.6501 9.20834 9.91667 9.20834H7.08333C4.34917 9.20834 2.125 11.4332 2.125 14.1667V14.875H14.1667Z" fill="white"/>
<circle cx="14" cy="14" r="4" fill="#020327"/>
<path d="M17 14C17 14.2765 16.976 14.5 16.6995 14.5H14.5V16.6995C14.5 16.9755 14.2765 17 14 17C13.7235 17 13.5 16.9755 13.5 16.6995V14.5H11.3005C11.0245 14.5 11 14.2765 11 14C11 13.7235 11.0245 13.5 11.3005 13.5H13.5V11.3005C13.5 11.024 13.7235 11 14 11C14.2765 11 14.5 11.024 14.5 11.3005V13.5H16.6995C16.976 13.5 17 13.7235 17 14Z" fill="white"/>
</g>
<defs>
<clipPath id="clip0">
<rect width="17" height="17" fill="white"/>
</clipPath>
</defs>
</svg>
