<svg width="23" height="22" viewBox="0 0 23 22" fill="none" xmlns="http://www.w3.org/2000/svg">
<path d="M13.7611 16.8294V14.5807C13.7611 14.1033 13.6163 13.8646 13.3268 13.8646C13.1571 13.8646 12.9924 13.941 12.8327 14.0938V17.3021C12.9924 17.4549 13.1571 17.5312 13.3268 17.5312C13.6163 17.5312 13.7611 17.2973 13.7611 16.8294ZM16.5163 15.082H17.5046V14.5951C17.5046 14.1081 17.3398 13.8646 17.0104 13.8646C16.681 13.8646 16.5163 14.1081 16.5163 14.5951V15.082ZM7.96615 11.2721V12.2747H6.76823V18.3333H5.66016V12.2747H4.49219V11.2721H7.96615ZM10.9759 13.0768V18.3333H9.97266V17.7604C9.58333 18.1901 9.20399 18.4049 8.83463 18.4049C8.50521 18.4049 8.29557 18.2713 8.20573 18.0039C8.14583 17.8416 8.11588 17.5838 8.11588 17.2305V13.0768H9.10417V16.944C9.10417 17.1732 9.10916 17.2973 9.11914 17.3164C9.12912 17.4596 9.20399 17.5312 9.34375 17.5312C9.5434 17.5312 9.75304 17.3832 9.97266 17.0872V13.0768H10.9759ZM14.7493 14.6667V16.7578C14.7493 17.2543 14.7144 17.6029 14.6445 17.8034C14.5247 18.2044 14.2602 18.4049 13.8509 18.4049C13.5015 18.4049 13.1621 18.2092 12.8327 17.8177V18.3333H11.8294V11.2721H12.8327V13.5781C13.1521 13.1962 13.4915 13.0052 13.8509 13.0052C14.2602 13.0052 14.5247 13.2057 14.6445 13.6068C14.7144 13.8073 14.7493 14.1606 14.7493 14.6667ZM18.5078 16.5143V16.6432C18.5078 16.9201 18.4978 17.1254 18.4779 17.2591C18.4479 17.4692 18.373 17.6602 18.2533 17.832C17.9837 18.214 17.5844 18.4049 17.0553 18.4049C16.5362 18.4049 16.1319 18.2235 15.8424 17.8607C15.6328 17.6029 15.528 17.1923 15.528 16.6289V14.7812C15.528 14.2179 15.6278 13.8073 15.8275 13.5495C16.117 13.1866 16.5163 13.0052 17.0254 13.0052C17.5345 13.0052 17.9238 13.1866 18.1934 13.5495C18.403 13.8264 18.5078 14.237 18.5078 14.7812V15.8698H16.5163V16.8008C16.5163 17.2878 16.686 17.5312 17.0254 17.5312C17.265 17.5312 17.4147 17.4071 17.4746 17.1589C17.4746 17.1493 17.4771 17.1159 17.4821 17.0586C17.4871 17.0013 17.4896 16.9225 17.4896 16.8223V16.5143H18.5078ZM11.7546 4.71224V6.94661C11.7546 7.43359 11.5948 7.67708 11.2754 7.67708C10.9559 7.67708 10.7962 7.43359 10.7962 6.94661V4.71224C10.7962 4.21571 10.9559 3.96745 11.2754 3.96745C11.5948 3.96745 11.7546 4.21571 11.7546 4.71224ZM19.7357 14.9245C19.7357 13.2344 19.6408 11.9931 19.4512 11.2005C19.3513 10.7804 19.1367 10.4295 18.8073 10.1478C18.4779 9.8661 18.0985 9.70139 17.6693 9.65365C16.3116 9.51042 14.2552 9.4388 11.5 9.4388C8.75477 9.4388 6.70334 9.51042 5.3457 9.65365C4.90647 9.70139 4.52463 9.8661 4.2002 10.1478C3.87576 10.4295 3.66363 10.7804 3.5638 11.2005C3.36415 12.0312 3.26432 13.2726 3.26432 14.9245C3.26432 16.605 3.36415 17.8464 3.5638 18.6484C3.66363 19.059 3.87576 19.4076 4.2002 19.694C4.52463 19.9805 4.90148 20.1476 5.33073 20.1953C6.69835 20.3385 8.75477 20.4102 11.5 20.4102C14.2452 20.4102 16.3016 20.3385 17.6693 20.1953C18.0985 20.1476 18.4754 19.9805 18.7998 19.694C19.1242 19.4076 19.3364 19.059 19.4362 18.6484C19.6359 17.8464 19.7357 16.605 19.7357 14.9245ZM8.43034 5.60026L9.77799 1.36068H8.65495L7.89128 4.15365L7.09766 1.36068H5.92969C5.99957 1.5803 6.11437 1.90972 6.27409 2.34896L6.63346 3.33724C6.98286 4.32075 7.21246 5.07509 7.32227 5.60026V8.47917H8.43034V5.60026ZM12.7578 6.76042V4.89844C12.7578 4.34462 12.653 3.92925 12.4434 3.65234C12.1539 3.2895 11.7645 3.10807 11.2754 3.10807C10.7663 3.10807 10.377 3.2895 10.1074 3.65234C9.89779 3.92925 9.79297 4.34462 9.79297 4.89844V6.76042C9.79297 7.31424 9.89779 7.7296 10.1074 8.00651C10.377 8.36936 10.7663 8.55078 11.2754 8.55078C11.7645 8.55078 12.1539 8.36936 12.4434 8.00651C12.653 7.7487 12.7578 7.33333 12.7578 6.76042ZM15.4681 8.47917H16.4714V3.17969H15.4681V7.23307C15.2485 7.52908 15.0388 7.67708 14.8392 7.67708C14.6895 7.67708 14.6096 7.60069 14.5996 7.44792C14.5896 7.42882 14.5846 7.30469 14.5846 7.07552V3.17969H13.5814V7.3763C13.5814 7.7296 13.6113 7.99219 13.6712 8.16406C13.781 8.42188 13.9957 8.55078 14.3151 8.55078C14.6745 8.55078 15.0588 8.33594 15.4681 7.90625V8.47917ZM23 4.125V17.875C23 19.0113 22.5782 19.9829 21.7347 20.7897C20.8912 21.5966 19.8754 22 18.6875 22H4.3125C3.12457 22 2.10883 21.5966 1.2653 20.7897C0.421766 19.9829 0 19.0113 0 17.875V4.125C0 2.98872 0.421766 2.01714 1.2653 1.21029C2.10883 0.403429 3.12457 0 4.3125 0H18.6875C19.8754 0 20.8912 0.403429 21.7347 1.21029C22.5782 2.01714 23 2.98872 23 4.125Z" fill="black"/>
</svg>
