<svg viewBox="0 0 1440 715" fill="none" xmlns="http://www.w3.org/2000/svg">
<path d="M-73 -3H1440V715H427.976C307.18 715 198.167 642.552 151.386 531.183L-73 -3Z" fill="#020327"/>
<rect opacity="0.01" x="-43" y="79" width="88.9617" height="793.106" transform="rotate(-23.4582 -43 79)" fill="white"/>
<rect opacity="0.01" x="51.7272" y="-5.9099" width="117.583" height="861.176" transform="rotate(-23.4582 51.7272 -5.9099)" fill="white"/>
<rect opacity="0.01" x="383.155" y="-5.73769" width="117.583" height="952.277" transform="rotate(-23.4582 383.155 -5.73769)" fill="white"/>
<rect opacity="0.01" x="893" y="-10" width="117.583" height="883.887" transform="rotate(-23.4582 893 -10)" fill="white"/>
<rect opacity="0.01" x="219.459" y="-8.63942" width="117.583" height="908.987" transform="rotate(-23.4582 219.459 -8.63942)" fill="white"/>
<rect opacity="0.01" x="720" y="-10.1925" width="117.583" height="854.875" transform="rotate(-23.4582 720 -10.1925)" fill="white"/>
<rect opacity="0.01" x="550.397" y="-7.08913" width="117.583" height="943.622" transform="rotate(-23.4582 550.397 -7.08913)" fill="white"/>
<rect opacity="0.01" x="1027" y="-109.193" width="117.583" height="926.083" transform="rotate(-23.4582 1027 -109.193)" fill="white"/>
</g>
</svg>
