<svg width="167" height="38" viewBox="0 0 167 38" fill="none" xmlns="http://www.w3.org/2000/svg">
<path d="M130.817 13.9168C133.886 13.9168 136.384 16.4141 136.384 19.4836C136.384 22.553 133.886 25.0503 130.817 25.0503C127.747 25.0503 125.25 22.5527 125.25 19.4832C125.25 16.4138 127.747 13.9168 130.817 13.9168ZM130.817 8.35001C124.668 8.35001 119.684 13.3346 119.684 19.4832C119.684 25.6318 124.668 30.6164 130.817 30.6164C136.966 30.6164 141.95 25.6318 141.95 19.4832C141.95 13.3346 136.965 8.35001 130.817 8.35001Z" fill="#EE34B1"/>
<path d="M155.867 13.9168C158.936 13.9168 161.434 16.4141 161.434 19.4836C161.434 22.553 158.936 25.0503 155.867 25.0503C152.797 25.0503 150.3 22.5527 150.3 19.4832C150.3 16.4138 152.797 13.9168 155.867 13.9168ZM155.867 8.35001C149.718 8.35001 144.734 13.3346 144.734 19.4832C144.734 25.6318 149.718 30.6164 155.867 30.6164C162.015 30.6164 167 25.6318 167 19.4832C167 13.3346 162.015 8.35001 155.867 8.35001Z" fill="#EE34B1"/>
<path d="M102.984 8.35001H97.4167V30.6168H102.984V8.35001Z" fill="white"/>
<path d="M58.45 8.35001C56.4213 8.35001 54.5225 8.89109 52.8832 9.84065C49.5556 11.7642 47.3165 15.364 47.3165 19.4832V30.6164H52.8832V29.1258V19.4832C52.8832 16.4124 55.3789 13.9165 58.45 13.9165C61.5212 13.9165 64.0168 16.4121 64.0168 19.4832V29.1258V30.6164H69.5836V19.4832C69.5833 13.3353 64.598 8.35001 58.45 8.35001Z" fill="white"/>
<path d="M89.0668 0V9.84332C87.4289 8.89542 85.5287 8.35 83.5 8.35C77.3514 8.35 72.3668 13.3346 72.3668 19.4832C72.3668 25.6318 77.3514 30.6164 83.5 30.6164C89.6486 30.6164 94.6332 25.6318 94.6332 19.4832V0H89.0668ZM83.5 25.05C80.4306 25.05 77.9332 22.5527 77.9332 19.4832C77.9332 16.4138 80.4306 13.9164 83.5 13.9164C86.5695 13.9164 89.0668 16.4138 89.0668 19.4832C89.0668 22.5527 86.5695 25.05 83.5 25.05Z" fill="white"/>
<path d="M13.7528 16.8112C13.354 16.7371 12.9455 16.7 12.525 16.7H6.95822C6.19136 16.7 5.56644 16.0754 5.56644 15.3082C5.56644 14.5414 6.19102 13.9164 6.95822 13.9164H13.7775H16.7V8.34967H6.68C6.29891 8.34967 5.92549 8.39609 5.56678 8.48895C2.39044 9.13256 0 11.9405 0 15.3082C0 18.7347 2.47394 21.5801 5.73044 22.1552C6.12923 22.2294 6.53771 22.2664 6.95822 22.2664H12.525C13.2919 22.2664 13.9168 22.891 13.9168 23.6582C13.9168 24.4251 13.2922 25.05 12.525 25.05H5.70572H0V30.6168H12.525C13.0013 30.6168 13.4682 30.5704 13.9168 30.4775C17.0928 29.8342 19.4836 27.0263 19.4836 23.6582C19.4832 20.2317 17.0093 17.3867 13.7528 16.8112Z" fill="white"/>
<path d="M116.9 13.9168V8.35H111.333V0H105.766V19.4832C105.766 25.6312 110.752 30.6164 116.9 30.6164V25.0497C113.829 25.0497 111.333 22.554 111.333 19.4829V13.9161H116.9V13.9168Z" fill="white"/>
<path d="M100.2 5.56644C101.737 5.56644 102.983 4.32036 102.983 2.78322C102.983 1.24609 101.737 0 100.2 0C98.6628 0 97.4167 1.24609 97.4167 2.78322C97.4167 4.32036 98.6628 5.56644 100.2 5.56644Z" fill="#EE34B1"/>
<path d="M43.7851 22.2668H38.2183C38.2089 22.2822 38.1996 22.2978 38.1906 22.3102C38.1595 22.366 38.1258 22.4214 38.0884 22.4742C37.9614 22.6846 37.8131 22.8823 37.6525 23.0681C37.6184 23.1115 37.5814 23.1546 37.5443 23.195C37.4113 23.3466 37.2661 23.4919 37.1144 23.6248C37.0743 23.6619 37.0339 23.696 36.9938 23.73C36.9287 23.7888 36.8579 23.8446 36.7834 23.9C36.6939 23.9682 36.6041 24.033 36.5082 24.0981C36.4989 24.1075 36.4865 24.1168 36.4711 24.1228C36.3783 24.1846 36.2824 24.2434 36.1866 24.2992C36.1836 24.3052 36.1772 24.3085 36.1712 24.3085C36.094 24.3519 36.0166 24.395 35.9394 24.4321C35.8001 24.5093 35.6518 24.5774 35.5035 24.6362C35.423 24.6702 35.3459 24.701 35.2654 24.729C35.213 24.7477 35.1572 24.7661 35.1047 24.7815C35.0647 24.7968 35.0212 24.8092 34.9778 24.8216C34.919 24.8403 34.8572 24.8556 34.7985 24.871C34.7026 24.8987 34.6067 24.9204 34.5079 24.9391C34.4244 24.9578 34.3379 24.9732 34.251 24.9855H34.2417C34.1675 24.9979 34.0934 25.0073 34.0189 25.0166C33.8148 25.0383 33.6108 25.0507 33.4003 25.0507C33.1899 25.0507 32.9858 25.0383 32.7818 25.0166C32.7076 25.0073 32.6335 24.9979 32.559 24.9855H32.5496C32.4631 24.9732 32.3763 24.9578 32.2928 24.9391C32.1939 24.9204 32.0981 24.899 32.0022 24.871C31.9434 24.8556 31.8816 24.8399 31.8229 24.8216C31.7794 24.8092 31.7363 24.7968 31.6959 24.7815C31.6435 24.7661 31.5877 24.7474 31.5353 24.729C31.4581 24.7013 31.3776 24.6702 31.3001 24.6362C31.1485 24.5774 31.0032 24.5093 30.8609 24.4321C30.7838 24.395 30.7063 24.3516 30.6291 24.3085C30.6261 24.3085 30.6228 24.3055 30.6198 24.3022L33.4 22.6973L36.1832 21.0891L38.9634 19.4839H38.9664L44.1281 16.5026C43.9487 15.8563 43.7136 15.2348 43.426 14.6409C43.3919 14.5668 43.3549 14.4893 43.3148 14.4151C43.2747 14.3346 43.2313 14.2575 43.1909 14.177L42.922 13.71C42.4734 12.9772 41.9447 12.2969 41.3449 11.6843C41.2179 11.5544 41.0883 11.4308 40.9551 11.3069C40.8252 11.1863 40.6892 11.0658 40.5499 10.9512C40.414 10.8366 40.2717 10.7224 40.1261 10.6142C39.9962 10.5153 39.8632 10.4161 39.7273 10.3236C39.6932 10.2989 39.6592 10.2742 39.6251 10.2525C39.3469 10.0638 39.0593 9.89075 38.7654 9.72676C38.6047 9.64025 38.4437 9.55341 38.2797 9.47626C38.1157 9.39576 37.9487 9.3186 37.7817 9.24746C37.6147 9.17331 37.4447 9.10518 37.2714 9.04339C37.1849 9.00932 37.0981 8.97859 37.0115 8.95054C36.9344 8.92282 36.8599 8.8981 36.7828 8.87639C36.0376 8.63524 35.255 8.47426 34.4478 8.40011C34.3055 8.38474 34.1602 8.37539 34.0116 8.36905C33.8105 8.35669 33.6064 8.35034 33.3993 8.35034C33.1923 8.35034 32.9878 8.35635 32.7871 8.36905C32.6388 8.37506 32.4932 8.38441 32.3509 8.40011C31.5436 8.47426 30.7614 8.63524 30.0159 8.87639C29.9388 8.8981 29.8643 8.92282 29.7871 8.95054C29.7006 8.97826 29.6138 9.00932 29.5273 9.04339C29.3539 9.10518 29.1839 9.17331 29.0169 9.24746C28.8499 9.3186 28.6829 9.39576 28.5189 9.47626C28.3549 9.55341 28.1943 9.64025 28.0333 9.72676C27.7394 9.89075 27.4518 10.0638 27.1736 10.2525C27.1395 10.2742 27.1054 10.2989 27.0714 10.3236C26.9354 10.4165 26.8022 10.5153 26.6726 10.6142C26.5273 10.7224 26.385 10.837 26.2487 10.9512C26.1095 11.0658 25.9735 11.1863 25.8436 11.3069C25.7107 11.4305 25.5807 11.5544 25.4538 11.6843C24.8539 12.2966 24.3249 12.9769 23.8767 13.71L23.6078 14.177C23.5677 14.2575 23.5243 14.3346 23.4839 14.4151C23.4438 14.4893 23.4067 14.5668 23.3727 14.6409C23.0821 15.2378 22.8469 15.8623 22.6676 16.512C22.6365 16.6265 22.6058 16.7438 22.5777 16.8613C22.519 17.1025 22.4695 17.3436 22.4261 17.5911C22.4044 17.7147 22.386 17.8386 22.3703 17.9622C22.355 18.0581 22.3426 18.1569 22.3332 18.2561C22.3269 18.2995 22.3239 18.346 22.3209 18.389C22.3025 18.5624 22.2902 18.7354 22.2808 18.9118C22.2715 19.1005 22.2654 19.2922 22.2654 19.4839C22.2654 19.6756 22.2718 19.8673 22.2808 20.056C22.2902 20.2324 22.3025 20.4054 22.3209 20.5788C22.3239 20.6222 22.3272 20.6686 22.3332 20.7117C22.3426 20.8105 22.355 20.9097 22.3703 21.0056C22.3857 21.1292 22.4044 21.2531 22.4261 21.3767C22.4695 21.6242 22.519 21.8653 22.5777 22.1065C22.6055 22.224 22.6365 22.3416 22.6676 22.4558C22.8469 23.1051 23.0821 23.73 23.3727 24.3269C23.4067 24.401 23.4438 24.4785 23.4839 24.5527C24.0002 25.5607 24.6682 26.4825 25.4538 27.2835C25.5807 27.4134 25.7103 27.537 25.8436 27.6609C25.9735 27.7815 26.1095 27.902 26.2487 28.0166C26.3847 28.1312 26.527 28.2454 26.6726 28.3536C26.8025 28.4525 26.9354 28.5517 27.0714 28.6442C27.1054 28.6689 27.1395 28.6936 27.1736 28.7153C27.4518 28.904 27.7394 29.077 28.0333 29.241C28.1939 29.3275 28.3549 29.4144 28.5189 29.4915C28.6829 29.572 28.8499 29.6492 29.0169 29.7203C29.1839 29.7945 29.3539 29.8626 29.5273 29.9244C29.6138 29.9585 29.7006 29.9892 29.7871 30.0173C29.8643 30.045 29.9388 30.0697 30.0159 30.0914C30.7611 30.3326 31.5436 30.4935 32.3509 30.5677C32.4932 30.5831 32.6385 30.5924 32.7871 30.5988C32.9882 30.6111 33.1923 30.6175 33.3993 30.6175C33.6064 30.6175 33.8108 30.6111 34.0116 30.5988C34.1599 30.5924 34.3055 30.5834 34.4478 30.5677C35.255 30.4935 36.0373 30.3326 36.7828 30.0914C36.8599 30.0697 36.9344 30.045 37.0115 30.0173C37.0981 29.9895 37.1849 29.9585 37.2714 29.9244C37.4447 29.8626 37.6147 29.7945 37.7817 29.7203C37.9487 29.6492 38.1157 29.572 38.2797 29.4915C38.4437 29.4144 38.6044 29.3275 38.7654 29.241C39.0593 29.077 39.3469 28.904 39.6251 28.7153C39.6592 28.6936 39.6932 28.6689 39.7273 28.6442C39.8632 28.5513 39.9965 28.4525 40.1261 28.3536C40.2714 28.2454 40.4137 28.1308 40.5499 28.0166C40.6892 27.902 40.8252 27.7815 40.9551 27.6609C41.088 27.5373 41.2179 27.4134 41.3449 27.2835C42.1304 26.4825 42.7984 25.561 43.3148 24.5527C43.3549 24.4785 43.3919 24.401 43.426 24.3269C43.7136 23.733 43.9487 23.1115 44.1281 22.4652C44.1468 22.4004 44.1652 22.3322 44.1839 22.2671H43.7851V22.2668ZM27.8366 19.4832H27.8336C27.8336 19.1833 27.8583 18.8894 27.9047 18.6018C27.9171 18.5213 27.9294 18.4411 27.9481 18.3637C27.9481 18.3607 27.9481 18.3573 27.9481 18.3573C27.9665 18.2675 27.9882 18.181 28.0099 18.0945C28.0316 18.0046 28.0563 17.9181 28.0841 17.8316C28.1024 17.7668 28.1241 17.7047 28.1458 17.6459C28.1612 17.6025 28.1769 17.5561 28.1953 17.513C28.217 17.4448 28.2447 17.383 28.2724 17.3182C28.3065 17.2347 28.3436 17.1542 28.3837 17.0738C28.4237 16.9903 28.4641 16.9098 28.5072 16.8326C28.6031 16.6502 28.7113 16.4739 28.8352 16.3069C28.8847 16.2297 28.9404 16.1553 28.9992 16.0811C29.0056 16.0687 29.0146 16.0594 29.0239 16.05C29.0857 15.9695 29.1509 15.8894 29.2187 15.8149C29.225 15.8025 29.234 15.7932 29.2464 15.7838C29.3175 15.7034 29.3887 15.6262 29.4658 15.5487C29.4782 15.5333 29.4935 15.5176 29.5122 15.5023C29.5774 15.4405 29.6422 15.3787 29.7103 15.3199C29.735 15.2952 29.7627 15.2705 29.7908 15.2518C29.8649 15.1836 29.9424 15.1219 30.0226 15.0631C30.1091 14.9949 30.1989 14.9301 30.2915 14.8684C30.3162 14.8496 30.3409 14.8313 30.3686 14.8189C30.4491 14.7665 30.5293 14.7167 30.6131 14.6673C30.6161 14.6609 30.6225 14.6579 30.6285 14.6579C30.7056 14.6145 30.7831 14.5714 30.8603 14.5344C31.0025 14.4572 31.1478 14.3891 31.2995 14.3303C31.3766 14.2962 31.4571 14.2655 31.5346 14.2374C31.587 14.2187 31.6428 14.2004 31.6953 14.185C31.7353 14.1696 31.7788 14.1573 31.8222 14.1449C31.881 14.1262 31.9428 14.1108 32.0015 14.0955C32.0974 14.0678 32.1933 14.046 32.2921 14.0273C32.3756 14.0086 32.4621 13.9933 32.549 13.9809H32.5583C32.6325 13.9686 32.7066 13.9592 32.7811 13.9499C32.8709 13.9405 32.9635 13.9311 33.0563 13.9251C33.0964 13.9251 33.1335 13.9221 33.1739 13.9221C33.248 13.9161 33.3222 13.9161 33.3997 13.9161C33.4772 13.9161 33.5513 13.9161 33.6255 13.9221C33.6655 13.9221 33.7026 13.9251 33.743 13.9251C33.8359 13.9315 33.9287 13.9405 34.0182 13.9499C34.0924 13.9592 34.1665 13.9686 34.241 13.9809H34.2504C34.3369 13.9933 34.4237 14.0086 34.5072 14.0273C34.6061 14.046 34.7019 14.0674 34.7978 14.0955C34.8566 14.1108 34.9184 14.1265 34.9772 14.1449C35.0206 14.1573 35.0637 14.1696 35.1041 14.185C35.1565 14.2004 35.2123 14.2191 35.2647 14.2374C35.3452 14.2651 35.4224 14.2962 35.5029 14.3303C35.6512 14.3891 35.7998 14.4572 35.9387 14.5344C36.0159 14.5714 36.0934 14.6148 36.1705 14.6579C36.1735 14.6579 36.1769 14.6609 36.1799 14.6643L33.4 16.2701L27.8366 19.4832Z" fill="white"/>
<path d="M147.705 33.4C146.592 34.5229 145.049 35.2207 143.342 35.2207C141.634 35.2207 140.091 34.5229 138.978 33.4H136.383C137.828 35.7193 140.403 37.2644 143.341 37.2644C146.279 37.2644 148.855 35.7197 150.299 33.4H147.705Z" fill="white"/>
</svg>
